<?xml version="1.0" encoding="UTF-8"?>
<svg version="1.1" viewBox="0 0 700 700" xmlns="http://www.w3.org/2000/svg" xmlns:xlink="http://www.w3.org/1999/xlink">
  <defs>
    <symbol id="s" overflow="visible">
      <path
        d="m2.7188-0.15625c-0.13672 0.074219-0.28125 0.125-0.4375 0.15625-0.14844 0.039062-0.30469 0.0625-0.46875 0.0625-0.5 0-0.89844-0.13281-1.1875-0.40625-0.28125-0.28125-0.42188-0.66016-0.42188-1.1406 0-0.46875 0.14062-0.83594 0.42188-1.1094 0.28906-0.28125 0.6875-0.42188 1.1875-0.42188 0.16406 0 0.32031 0.023437 0.46875 0.0625 0.15625 0.03125 0.30078 0.085937 0.4375 0.15625v0.60938c-0.13672-0.09375-0.27734-0.16016-0.42188-0.20312-0.13672-0.050781-0.27734-0.078125-0.42188-0.078125-0.28125 0-0.5 0.089844-0.65625 0.26562-0.15625 0.17969-0.23438 0.41797-0.23438 0.71875 0 0.3125 0.078125 0.55859 0.23438 0.73438 0.15625 0.16797 0.375 0.25 0.65625 0.25 0.14453 0 0.28516-0.019531 0.42188-0.0625 0.14453-0.039062 0.28516-0.11328 0.42188-0.21875z"/>
    </symbol>
    <symbol id="d" overflow="visible">
      <path
        d="m1.9844-1.6094c-0.0625-0.03125-0.125-0.050781-0.1875-0.0625-0.054687-0.019531-0.10938-0.03125-0.17188-0.03125-0.1875 0-0.33594 0.0625-0.4375 0.1875-0.09375 0.11719-0.14062 0.27734-0.14062 0.48438v1.0312h-0.70312v-2.2188h0.70312v0.35938c0.09375-0.14453 0.19531-0.25 0.3125-0.3125 0.125-0.070313 0.26953-0.10938 0.4375-0.10938 0.019531 0 0.039063 0.007812 0.0625 0.015625h0.125z"/>
    </symbol>
    <symbol id="b" overflow="visible">
      <path
        d="m2.5625-1.1094v0.1875h-1.6562c0.007812 0.16797 0.066406 0.29297 0.17188 0.375 0.10156 0.085937 0.25 0.125 0.4375 0.125 0.14453 0 0.29688-0.019531 0.45312-0.0625 0.15625-0.039063 0.31641-0.10938 0.48438-0.20312v0.54688c-0.16797 0.0625-0.33594 0.10938-0.5 0.14062-0.16797 0.039062-0.33594 0.0625-0.5 0.0625-0.40625 0-0.72656-0.10156-0.95312-0.3125-0.21875-0.20703-0.32812-0.49219-0.32812-0.85938 0-0.36328 0.10938-0.64844 0.32812-0.85938 0.21875-0.20703 0.51953-0.3125 0.90625-0.3125 0.35156 0 0.63281 0.10938 0.84375 0.32812 0.20703 0.21094 0.3125 0.49219 0.3125 0.84375zm-0.73438-0.25c0-0.13281-0.042969-0.23828-0.125-0.3125-0.074219-0.082031-0.17188-0.125-0.29688-0.125-0.13672 0-0.25 0.039063-0.34375 0.10938-0.085938 0.074219-0.13672 0.18359-0.15625 0.32812z"/>
    </symbol>
    <symbol id="j" overflow="visible">
      <path
        d="m1.3438-1c-0.15625 0-0.27344 0.027344-0.34375 0.078125-0.074219 0.054687-0.10938 0.125-0.10938 0.21875s0.03125 0.16797 0.09375 0.21875c0.0625 0.042969 0.14453 0.0625 0.25 0.0625 0.13281 0 0.24219-0.046875 0.32812-0.14062 0.09375-0.09375 0.14062-0.21094 0.14062-0.35938v-0.078125zm1.0781-0.26562v1.2656h-0.71875v-0.32812c-0.09375 0.13672-0.20312 0.23438-0.32812 0.29688-0.11719 0.0625-0.25781 0.09375-0.42188 0.09375-0.23047 0-0.41797-0.066406-0.5625-0.20312-0.14844-0.13281-0.21875-0.3125-0.21875-0.53125 0-0.25781 0.085937-0.44531 0.26562-0.5625 0.1875-0.125 0.46875-0.1875 0.84375-0.1875h0.42188v-0.0625c0-0.10156-0.046875-0.17969-0.14062-0.23438-0.085938-0.050781-0.21875-0.078125-0.40625-0.078125-0.14844 0-0.28906 0.015625-0.42188 0.046875-0.13672 0.023438-0.25781 0.0625-0.35938 0.125v-0.53125c0.14453-0.039062 0.29688-0.070312 0.45312-0.09375 0.15625-0.019531 0.30469-0.03125 0.45312-0.03125 0.40625 0 0.69531 0.085938 0.875 0.25 0.17578 0.15625 0.26562 0.41406 0.26562 0.76562z"/>
    </symbol>
    <symbol id="c" overflow="visible">
      <path
        d="m1.1094-2.8594v0.64062h0.73438v0.5h-0.73438v0.95312c0 0.10547 0.019531 0.17188 0.0625 0.20312 0.039063 0.03125 0.125 0.046875 0.25 0.046875h0.35938v0.51562h-0.60938c-0.28125 0-0.48047-0.054688-0.59375-0.17188-0.11719-0.11328-0.17188-0.3125-0.17188-0.59375v-0.95312h-0.35938v-0.5h0.35938v-0.64062z"/>
    </symbol>
    <symbol id="i" overflow="visible">
      <path
        d="m1.8594-1.8906v-1.2031h0.70312v3.0938h-0.70312v-0.32812c-0.10547 0.13672-0.21484 0.23438-0.32812 0.29688-0.11719 0.0625-0.25 0.09375-0.40625 0.09375-0.28125 0-0.51172-0.10938-0.6875-0.32812-0.16797-0.21875-0.25-0.5-0.25-0.84375s0.082031-0.625 0.25-0.84375c0.17578-0.21875 0.40625-0.32812 0.6875-0.32812 0.14453 0 0.27344 0.03125 0.39062 0.09375 0.125 0.0625 0.23828 0.16406 0.34375 0.29688zm-0.46875 1.4375c0.14453 0 0.25781-0.054687 0.34375-0.17188 0.082031-0.11328 0.125-0.27344 0.125-0.48438 0-0.20703-0.042969-0.36719-0.125-0.48438-0.085937-0.11328-0.19922-0.17188-0.34375-0.17188-0.15625 0-0.27734 0.058594-0.35938 0.17188-0.074219 0.11719-0.10938 0.27734-0.10938 0.48438 0 0.21094 0.035156 0.37109 0.10938 0.48438 0.082031 0.11719 0.20312 0.17188 0.35938 0.17188z"/>
    </symbol>
    <symbol id="h" overflow="visible">
      <path
        d="m1.5312-0.45312c0.14453 0 0.25391-0.054687 0.32812-0.17188 0.082031-0.11328 0.125-0.27344 0.125-0.48438 0-0.20703-0.042969-0.36719-0.125-0.48438-0.074219-0.11328-0.18359-0.17188-0.32812-0.17188-0.15625 0-0.27734 0.058594-0.35938 0.17188-0.085937 0.11719-0.125 0.27734-0.125 0.48438 0 0.21094 0.039063 0.37109 0.125 0.48438 0.082031 0.11719 0.20312 0.17188 0.35938 0.17188zm-0.48438-1.4375c0.10156-0.13281 0.21094-0.23438 0.32812-0.29688 0.125-0.0625 0.25781-0.09375 0.40625-0.09375 0.28125 0 0.50391 0.10938 0.67188 0.32812 0.17578 0.21875 0.26562 0.5 0.26562 0.84375s-0.089844 0.625-0.26562 0.84375c-0.16797 0.21875-0.39062 0.32812-0.67188 0.32812-0.14844 0-0.28125-0.03125-0.40625-0.09375-0.11719-0.0625-0.22656-0.16016-0.32812-0.29688v0.32812h-0.70312v-3.0938h0.70312z"/>
    </symbol>
    <symbol id="g" overflow="visible">
      <path
        d="m0.046875-2.2188h0.71875l0.59375 1.5 0.5-1.5h0.71875l-0.9375 2.4219c-0.09375 0.25-0.20312 0.42188-0.32812 0.51562-0.125 0.10156-0.29297 0.15625-0.5 0.15625h-0.40625v-0.46875h0.21875c0.125 0 0.21094-0.023438 0.26562-0.0625 0.050781-0.03125 0.09375-0.10156 0.125-0.20312l0.03125-0.0625z"/>
    </symbol>
    <symbol id="e" overflow="visible">
      <path
        d="m0.34375-2.2188h0.70312v2.1719c0 0.30078-0.074219 0.53125-0.21875 0.6875-0.13672 0.15625-0.33984 0.23438-0.60938 0.23438h-0.35938v-0.46875h0.125c0.13281 0 0.22656-0.03125 0.28125-0.09375 0.050781-0.054688 0.078125-0.17188 0.078125-0.35938zm0-0.875h0.70312v0.59375h-0.70312z"/>
    </symbol>
    <symbol id="a" overflow="visible">
      <path
        d="m1.4062-1.7656c-0.16797 0-0.29297 0.058594-0.375 0.17188-0.074219 0.11719-0.10938 0.27734-0.10938 0.48438 0 0.21094 0.035156 0.37109 0.10938 0.48438 0.082031 0.11719 0.20703 0.17188 0.375 0.17188 0.14453 0 0.25781-0.054687 0.34375-0.17188 0.082031-0.11328 0.125-0.27344 0.125-0.48438 0-0.20703-0.042969-0.36719-0.125-0.48438-0.085938-0.11328-0.19922-0.17188-0.34375-0.17188zm0-0.51562c0.375 0 0.66406 0.10547 0.875 0.3125 0.21875 0.21094 0.32812 0.49609 0.32812 0.85938 0 0.36719-0.10938 0.65234-0.32812 0.85938-0.21094 0.21094-0.5 0.3125-0.875 0.3125-0.38672 0-0.6875-0.10156-0.90625-0.3125-0.21875-0.20703-0.32812-0.49219-0.32812-0.85938 0-0.36328 0.10938-0.64844 0.32812-0.85938 0.21875-0.20703 0.51953-0.3125 0.90625-0.3125z"/>
    </symbol>
    <symbol id="f" overflow="visible">
      <path
        d="m0.34375-3.0938h0.70312v1.6875l0.82812-0.8125h0.8125l-1.0781 1.0156 1.1719 1.2031h-0.85938l-0.875-0.92188v0.92188h-0.70312z"/>
    </symbol>
    <symbol id="r" overflow="visible">
      <path
        d="m1.7969-3.0938v0.46875h-0.39062c-0.09375 0-0.16406 0.023438-0.20312 0.0625-0.042969 0.03125-0.0625 0.09375-0.0625 0.1875v0.15625h0.60938v0.5h-0.60938v1.7188h-0.70312v-1.7188h-0.35938v-0.5h0.35938v-0.15625c0-0.23828 0.0625-0.41406 0.1875-0.53125 0.13281-0.125 0.34766-0.1875 0.64062-0.1875z"/>
    </symbol>
    <symbol id="q" overflow="visible">
      <path
        d="m2.4062-1.8594c0.082031-0.13281 0.1875-0.23828 0.3125-0.3125 0.125-0.070313 0.25781-0.10938 0.40625-0.10938 0.25781 0 0.45312 0.085938 0.57812 0.25 0.13281 0.15625 0.20312 0.38281 0.20312 0.67188v1.3594h-0.70312v-1.1562-0.046875-0.09375c0-0.15625-0.027344-0.26562-0.078125-0.32812-0.042969-0.070312-0.11719-0.10938-0.21875-0.10938-0.13672 0-0.24219 0.058594-0.3125 0.17188-0.074219 0.10547-0.10938 0.26172-0.10938 0.46875v1.0938h-0.71875v-1.1562c0-0.25-0.023437-0.40625-0.0625-0.46875-0.042969-0.070312-0.11719-0.10938-0.21875-0.10938-0.13672 0-0.24609 0.058594-0.32812 0.17188-0.074219 0.10547-0.10938 0.26172-0.10938 0.46875v1.0938h-0.70312v-2.2188h0.70312v0.32812c0.09375-0.125 0.19141-0.21875 0.29688-0.28125 0.11328-0.070313 0.23828-0.10938 0.375-0.10938 0.15625 0 0.28906 0.042969 0.40625 0.125 0.125 0.074219 0.21875 0.17188 0.28125 0.29688z"/>
    </symbol>
    <symbol id="p" overflow="visible">
      <path
        d="m2.5781-1.3594v1.3594h-0.71875v-1.0312c0-0.19531-0.007813-0.33203-0.015625-0.40625-0.011719-0.070312-0.027344-0.125-0.046875-0.15625-0.023437-0.039062-0.058594-0.070312-0.10938-0.09375-0.042969-0.03125-0.09375-0.046875-0.15625-0.046875-0.14844 0-0.26562 0.058594-0.35938 0.17188-0.085937 0.11719-0.125 0.27344-0.125 0.46875v1.0938h-0.70312v-3.0938h0.70312v1.2031c0.11328-0.13281 0.22656-0.23438 0.34375-0.29688 0.125-0.0625 0.25781-0.09375 0.40625-0.09375 0.25 0 0.44141 0.085938 0.57812 0.25 0.13281 0.15625 0.20312 0.38281 0.20312 0.67188z"/>
    </symbol>
    <symbol id="o" overflow="visible">
      <path d="m0.375-2.9688h0.84375l1.0781 2.0312v-2.0312h0.73438v2.9688h-0.85938l-1.0781-2.0312v2.0312h-0.71875z"/>
    </symbol>
    <symbol id="n" overflow="visible">
      <path
        d="m0.3125-0.85938v-1.3594h0.71875v0.21875 0.45312 0.35938c0 0.17969 0.003906 0.30859 0.015625 0.39062 0.007813 0.085937 0.023437 0.14062 0.046875 0.17188 0.019531 0.042969 0.054688 0.078125 0.10938 0.10938 0.050781 0.023437 0.10156 0.03125 0.15625 0.03125 0.15625 0 0.27344-0.054687 0.35938-0.17188 0.082031-0.11328 0.125-0.26953 0.125-0.46875v-1.0938h0.70312v2.2188h-0.70312v-0.32812c-0.10547 0.13672-0.21875 0.23438-0.34375 0.29688-0.11719 0.0625-0.24609 0.09375-0.39062 0.09375-0.26172 0-0.46094-0.078125-0.59375-0.23438-0.13672-0.16406-0.20312-0.39453-0.20312-0.6875z"/>
    </symbol>
    <symbol id="m" overflow="visible">
      <path
        d="m2.5781-1.3594v1.3594h-0.71875v-1.0312c0-0.19531-0.007813-0.33203-0.015625-0.40625-0.011719-0.070312-0.027344-0.125-0.046875-0.15625-0.023437-0.039062-0.058594-0.070312-0.10938-0.09375-0.042969-0.03125-0.09375-0.046875-0.15625-0.046875-0.14844 0-0.26562 0.058594-0.35938 0.17188-0.085937 0.11719-0.125 0.27344-0.125 0.46875v1.0938h-0.70312v-2.2188h0.70312v0.32812c0.11328-0.13281 0.22656-0.23438 0.34375-0.29688 0.125-0.0625 0.25781-0.09375 0.40625-0.09375 0.25 0 0.44141 0.085938 0.57812 0.25 0.13281 0.15625 0.20312 0.38281 0.20312 0.67188z"/>
    </symbol>
    <symbol id="l" overflow="visible">
      <path
        d="m0.375-2.9688h1.2656c0.375 0 0.66016 0.089844 0.85938 0.26562 0.20703 0.16797 0.3125 0.40234 0.3125 0.70312 0 0.3125-0.10547 0.55469-0.3125 0.71875-0.19922 0.16797-0.48438 0.25-0.85938 0.25h-0.5v1.0312h-0.76562zm0.76562 0.5625v0.82812h0.42188c0.14453 0 0.25391-0.035156 0.32812-0.10938 0.082031-0.070312 0.125-0.17578 0.125-0.3125 0-0.125-0.042969-0.22266-0.125-0.29688-0.074219-0.070313-0.18359-0.10938-0.32812-0.10938z"/>
    </symbol>
    <symbol id="k" overflow="visible">
      <path
        d="m2.1406-2.1562v0.57812c-0.10547-0.0625-0.20312-0.10938-0.29688-0.14062s-0.19531-0.046875-0.29688-0.046875c-0.19922 0-0.35547 0.058594-0.46875 0.17188-0.10547 0.11719-0.15625 0.27734-0.15625 0.48438 0 0.21094 0.050781 0.37109 0.15625 0.48438 0.11328 0.11719 0.26953 0.17188 0.46875 0.17188 0.10156 0 0.20703-0.015625 0.3125-0.046875 0.10156-0.03125 0.19531-0.078125 0.28125-0.14062v0.57812c-0.11719 0.042969-0.23047 0.070312-0.34375 0.09375-0.11719 0.019531-0.23047 0.03125-0.34375 0.03125-0.39844 0-0.71094-0.10156-0.9375-0.3125-0.23047-0.20703-0.34375-0.49219-0.34375-0.85938 0-0.36328 0.11328-0.64844 0.34375-0.85938 0.22656-0.20703 0.53906-0.3125 0.9375-0.3125 0.11328 0 0.22656 0.011719 0.34375 0.03125 0.11328 0.023438 0.22656 0.054688 0.34375 0.09375z"/>
    </symbol>
  </defs>
  <g>
    <path
      d="m67.656 0h564.69v307.04h-83.742v-169.63h-397.21v169.63h-83.734zm191.14 300.76c0-50.609 41.027-91.637 91.645-91.637 50.609 0 91.645 41.027 91.645 91.637 0 50.617-41.035 91.645-91.645 91.645-50.617 0-91.645-41.027-91.645-91.645zm129.79-10.074c-3.9844-15.219-21.09-19.516-26.906 0-2.8047 9.7969-5.4766 27.066-15.355 41.297-8.6719 12.477-26.109 13.734-38.902 5.4844-9.1914-5.9609-13.375-16.141-14.777-26.621h-18.445v-20.156h18.527c1.2344-8.9297 4.1289-16.004 8.7109-21.188 6.2695-7.1367 14.617-10.859 25.082-11.234l0.78516 22.824c-5.8242 0.96484-9.9922 3.043-12.539 6.2148-3.3242 4.1523-6.5117 20.516 0.25781 29.703 3.8047 5.1602 9.6523 4.4297 13.879 0.20313 4.8438-4.8438 10.074-34.676 15.688-45.328 6.1797-11.656 16.41-16.922 29.414-16.922 21.113 0 32.309 16.484 34.359 35.723h18.324v20.156h-18.559c-3.0586 21.617-16.262 33.152-37.855 35.73l-2.1992-22.191c8.5977-1.5586 20.516-5.8477 20.516-33.695zm-208.21 212.04v-344.91h42.074v311.3c23.711 0 43.105 19.402 43.105 43.113h169.77c0-23.711 19.395-43.113 43.105-43.113v-311.3h42.082v344.91c0 31.504-25.777 57.285-57.285 57.285h-225.56c-31.512 0-57.285-25.777-57.285-57.285z"
      fill-rule="evenodd"/>
  </g>
</svg>
