<svg viewBox="0 0 24 16" fill="none" xmlns="http://www.w3.org/2000/svg">
  <g clip-path="url(#clip0_122_708)">
    <path
      d="M0 2C0 0.895431 0.895431 0 2 0H22C23.1046 0 24 0.895431 24 2V14C24 15.1046 23.1046 16 22 16H2C0.89543 16 0 15.1046 0 14V2Z"
      fill="#2463EB"/>
  </g>
  <path
    d="M6.13139 10H5.14276L6.64915 5.63636H7.83807L9.34233 10H8.35369L7.26065 6.63352H7.22656L6.13139 10ZM6.0696 8.2848H8.40483V9.00497H6.0696V8.2848ZM13.5126 7.16406H12.5794C12.5623 7.04332 12.5275 6.93608 12.475 6.84233C12.4224 6.74716 12.3549 6.66619 12.2725 6.59943C12.1902 6.53267 12.095 6.48153 11.987 6.44602C11.8805 6.41051 11.7647 6.39276 11.6397 6.39276C11.4139 6.39276 11.2172 6.44886 11.0495 6.56108C10.8819 6.67187 10.752 6.83381 10.6596 7.04688C10.5673 7.25852 10.5211 7.51562 10.5211 7.81818C10.5211 8.12926 10.5673 8.39062 10.6596 8.60227C10.7534 8.81392 10.8841 8.97372 11.0517 9.08168C11.2193 9.18963 11.4132 9.24361 11.6333 9.24361C11.7569 9.24361 11.8713 9.22727 11.9764 9.1946C12.0829 9.16193 12.1774 9.11435 12.2598 9.05185C12.3422 8.98793 12.4103 8.91051 12.4643 8.8196C12.5197 8.72869 12.5581 8.625 12.5794 8.50852L13.5126 8.51278C13.4885 8.71307 13.4281 8.90625 13.3315 9.09233C13.2363 9.27699 13.1078 9.44247 12.9458 9.58878C12.7853 9.73366 12.5936 9.84872 12.3706 9.93395C12.149 10.0178 11.8983 10.0597 11.6184 10.0597C11.2292 10.0597 10.8812 9.97159 10.5744 9.79545C10.269 9.61932 10.0275 9.36435 9.84996 9.03054C9.67383 8.69673 9.58576 8.29261 9.58576 7.81818C9.58576 7.34233 9.67525 6.9375 9.85423 6.60369C10.0332 6.26989 10.2761 6.01562 10.5829 5.84091C10.8897 5.66477 11.2349 5.5767 11.6184 5.5767C11.8713 5.5767 12.1056 5.61222 12.3216 5.68324C12.5389 5.75426 12.7314 5.85795 12.899 5.99432C13.0666 6.12926 13.2029 6.29474 13.3081 6.49077C13.4146 6.68679 13.4828 6.91122 13.5126 7.16406ZM14.1742 10V5.63636H15.0968V7.43679H16.9696V5.63636H17.8901V10H16.9696V8.19744H15.0968V10H14.1742Z"
    fill="white"/>
  <defs>
    <clipPath id="clip0_122_708">
      <rect width="24" height="16" fill="white"/>
    </clipPath>
  </defs>
</svg>
